<?xml version="1.0" encoding="UTF-8"?>
<svg width="468px" height="495px" viewBox="0 0 468 495" version="1.1" xmlns="http://www.w3.org/2000/svg" xmlns:xlink="http://www.w3.org/1999/xlink">
    <!-- Generator: Sketch 60.1 (88133) - https://sketch.com -->
    <title>logo-offerta-box</title>
    <desc>Created with Sketch.</desc>
    <g id="Page-1" stroke="none" stroke-width="1" fill="none" fill-rule="evenodd">
        <g id="logo-offerta-box" fill="#000000" fill-rule="nonzero">
            <path d="M395.216973,0 C435.253887,0 468,32.7417319 468,72.7732896 L468,72.7732896 L468,352.660944 C468,392.692502 435.253887,425.434234 395.216973,425.434234 L395.216973,425.434234 L305.019347,425.698056 L239.929852,492.542287 C236.652463,495.819238 231.33365,495.819238 228.056261,492.542287 L228.056261,492.542287 L162.966766,425.698056 L72.7830267,425.698056 C32.7461128,425.698056 0,392.956324 0,352.924766 L0,352.924766 L0,73.0371118 C0,33.0055542 32.7461128,0.263822267 72.7830267,0.263822267 L72.7830267,0.263822267 Z M234.32521,84 C163.574535,84 108,137.114426 108,212.668491 C108,287.945531 163.616071,341 234.32521,341 C305.325554,341 361,287.996216 361,212.668491 C361,137.059345 305.375818,84 234.32521,84 Z M235.026307,136.789189 C253.524502,136.789189 271.23549,143.346037 284.249507,155.487362 C298.688152,168.957785 306.785714,188.563681 306.785714,213.194595 C306.785714,237.825508 298.688152,257.431404 284.249507,270.901827 C271.23549,283.043152 253.524502,289.6 235.026307,289.6 C216.695834,289.6 199.073624,283.039854 186.107411,270.905502 C171.700964,257.423314 163.610533,237.812707 163.604396,213.193729 C163.604396,188.576877 171.693484,168.966524 186.102198,155.483829 C199.069677,143.349742 216.695106,136.789189 235.026307,136.789189 Z" id="Path-2"></path>
        </g>
    </g>
</svg>