<svg version="1.0" xmlns="http://www.w3.org/2000/svg"
 width="225.000000pt" height="225.000000pt" viewBox="0 0 225.000000 225.000000"
 preserveAspectRatio="xMidYMid meet">

<g transform="translate(0.000000,225.000000) scale(0.100000,-0.100000)"
fill="#000000" stroke="none">
<path d="M1093 1990 c-31 -12 -750 -564 -790 -606 -20 -20 -33 -44 -33 -59 0
-75 79 -128 141 -95 18 10 19 7 19 -79 l0 -90 -43 19 c-28 13 -65 20 -113 20
-114 0 -190 -48 -247 -154 -17 -32 -22 -58 -22 -116 1 -100 36 -167 118 -224
57 -40 57 -40 57 -92 l0 -52 -60 -4 c-45 -3 -66 -10 -85 -28 -52 -49 -40 -130
25 -163 33 -16 93 -17 909 -15 803 3 875 4 884 20 8 12 7 21 -2 32 -12 14
-103 16 -892 16 -831 0 -879 1 -888 18 -6 11 -6 24 0 35 9 16 76 17 1054 17
990 0 1045 -1 1054 -18 6 -11 6 -24 0 -35 -8 -14 -26 -17 -109 -17 -110 0
-130 -4 -130 -29 0 -34 22 -41 120 -41 109 0 156 17 178 63 18 38 8 88 -23
117 -19 18 -40 25 -85 28 l-60 4 0 52 c0 52 0 52 57 92 39 27 66 56 87 94 27
48 31 64 30 130 0 113 -50 196 -146 244 -66 33 -170 36 -235 6 l-43 -19 0 90
c0 86 1 89 19 79 85 -45 181 67 122 142 -11 13 -84 73 -162 133 -113 86 -145
106 -158 98 -37 -23 -22 -42 124 -153 117 -90 146 -116 143 -134 -7 -50 -40
-30 -408 253 -201 154 -369 280 -375 280 -5 0 -174 -126 -374 -280 -369 -283
-402 -304 -409 -253 -3 18 66 75 383 318 212 163 392 296 400 296 8 0 102 -67
209 -150 108 -82 202 -150 209 -150 8 0 20 7 27 15 10 12 10 18 -1 31 -22 27
-387 304 -414 314 -31 12 -33 12 -62 0z m348 -457 l309 -238 0 -417 0 -418
-335 0 -335 0 -2 313 -3 312 -214 3 c-149 2 -218 -1 -227 -9 -11 -9 -14 -54
-14 -209 0 -109 3 -205 6 -214 8 -21 50 -21 58 0 3 9 6 96 6 195 l0 179 165 0
165 0 0 -285 0 -285 -164 0 -165 0 -3 41 c-6 79 -68 76 -68 -2 l0 -39 -60 0
-60 0 0 418 0 417 308 237 c169 130 311 237 315 237 5 1 147 -106 318 -236z
m-1057 -527 l46 -27 0 -144 0 -143 -30 -26 c-64 -53 -163 -57 -237 -10 -136
89 -126 285 19 358 68 35 134 32 202 -8z m1684 8 c85 -42 128 -129 110 -223
-28 -150 -214 -221 -328 -125 l-31 26 3 146 3 146 54 28 c68 36 120 36 189 2z
m-1638 -484 l0 -70 -30 0 c-30 0 -30 1 -30 54 0 44 4 56 23 69 12 9 25 16 30
16 4 1 7 -30 7 -69z m1425 54 c21 -14 25 -24 25 -70 0 -53 0 -54 -30 -54 l-30
0 0 70 c0 39 2 70 5 70 3 0 17 -7 30 -16z m-1545 -74 l0 -50 -35 0 -35 0 0 50
0 50 35 0 35 0 0 -50z m1700 0 l0 -50 -35 0 -35 0 0 50 0 50 35 0 35 0 0 -50z"/>
<path d="M1055 1591 c-47 -22 -89 -64 -104 -104 -33 -88 17 -204 102 -236 36
-14 108 -14 144 0 85 32 135 148 102 236 -23 62 -109 123 -174 123 -16 0 -48
-9 -70 -19z m35 -96 l0 -45 -40 0 c-22 0 -40 5 -40 11 0 11 63 79 74 79 3 0 6
-20 6 -45z m129 -1 c29 -37 27 -44 -19 -44 l-40 0 0 45 c0 42 2 45 19 35 11
-5 29 -22 40 -36z m-129 -144 c0 -48 -11 -50 -51 -11 -39 40 -37 51 11 51 l40
0 0 -40z m150 29 c0 -14 -55 -69 -69 -69 -6 0 -11 18 -11 40 l0 40 40 0 c22 0
40 -5 40 -11z"/>
<path d="M1187 1083 c-4 -3 -7 -60 -7 -126 0 -115 -1 -121 -25 -143 -21 -19
-25 -32 -25 -81 0 -37 6 -67 16 -81 15 -22 19 -22 254 -22 281 0 270 -4 270
99 0 55 -4 71 -20 86 -18 16 -20 31 -20 135 0 77 -4 120 -12 128 -13 13 -419
18 -431 5z m183 -153 l0 -100 -65 0 -65 0 0 100 0 100 65 0 65 0 0 -100z m190
0 l0 -100 -65 0 -65 0 0 93 c0 52 3 97 7 100 3 4 33 7 65 7 l58 0 0 -100z m50
-200 l0 -30 -205 0 -205 0 0 30 0 30 205 0 205 0 0 -30z"/>
</g>
</svg>
