<svg id="Lager_1" xmlns="http://www.w3.org/2000/svg" viewBox="0 0 41.5 38.65" style="enable-background:new 0 0 41.5 38.65"><style>.st0{fill:currentColor}</style><path class="st0" d="M6.46 20.32c2 0 3.77-1.02 4.82-2.57a5.82 5.82 0 0 0 4.82 2.57c2 0 3.77-1.02 4.82-2.56a5.822 5.822 0 0 0 4.82 2.56c2 0 3.77-1.02 4.81-2.56a5.818 5.818 0 0 0 4.81 2.56c3.21 0 5.81-2.61 5.81-5.81 0-.12-.02-.25-.07-.36L35.8.64a.994.994 0 0 0-.93-.64H6.94c-.41 0-.78.25-.93.64L.72 14.14c-.05.12-.07.24-.07.37-.01 3.2 2.6 5.81 5.81 5.81zM7.62 2h26.57l4.97 12.68a3.814 3.814 0 0 1-3.81 3.63c-2.1 0-3.81-1.71-3.81-3.81 0-.55-.45-1-1-1s-1 .45-1 1c0 2.1-1.71 3.81-3.81 3.81s-3.81-1.71-3.81-3.81c0-.55-.45-1-1-1s-1 .45-1 1c0 2.1-1.71 3.81-3.81 3.81S12.3 16.6 12.3 14.5c0-.55-.45-1-1-1h-.02c-.55 0-1 .45-1 1 0 2.1-1.71 3.81-3.81 3.81-2.04 0-3.72-1.61-3.81-3.63L7.62 2zM10.89 27.04c-.55 0-1 .45-1 1s.45 1 1 1h1.23c.55 0 1-.45 1-1s-.45-1-1-1h-1.23zM30.24 22.6a.996.996 0 0 0-1.41 0l-8.34 8.34a.996.996 0 0 0 .71 1.7c.26 0 .51-.1.71-.29l8.34-8.34c.38-.39.38-1.02-.01-1.41zM28.83 27.69l-2.18 2.18a.996.996 0 0 0 .71 1.7c.26 0 .51-.1.71-.29l2.18-2.18c.39-.39.39-1.02 0-1.41s-1.03-.39-1.42 0z"/><path class="st0" d="M40.5 36.65h-2.4v-14c0-.55-.45-1-1-1s-1 .45-1 1v14.01H16.01V22.65c0-.55-.45-1-1-1s-1 .45-1 1v14.01H5.97V22.65c0-.55-.45-1-1-1s-1 .45-1 1v14.01H1c-.55 0-1 .45-1 1s.45 1 1 1h39.5c.55 0 1-.45 1-1s-.45-1.01-1-1.01z"/></svg>