<svg id="Layer_1" xmlns="http://www.w3.org/2000/svg" viewBox="0 0 24 24" style="enable-background:new 0 0 24 24"><path d="M5.25 24a.747.747 0 0 1-.75-.75V19.5H2.25A2.252 2.252 0 0 1 0 17.25v-15A2.252 2.252 0 0 1 2.25 0h19.5A2.252 2.252 0 0 1 24 2.25v15a2.252 2.252 0 0 1-2.25 2.25H11.5l-5.8 4.35a.753.753 0 0 1-.45.15zm-3-22.5a.75.75 0 0 0-.75.75v15c0 .414.336.75.75.75h3a.75.75 0 0 1 .75.75v3l4.8-3.6a.753.753 0 0 1 .45-.15h10.5a.75.75 0 0 0 .75-.75v-15a.75.75 0 0 0-.75-.75H2.25z"/><path d="M9.633 8a.746.746 0 0 1-.673-.419 1.475 1.475 0 0 0-1.335-.831 1.49 1.49 0 0 0-1.331.831.746.746 0 0 1-1.004.342.75.75 0 0 1-.342-1.004 2.999 2.999 0 0 1 2.677-1.67c.328 0 .653.054.966.161a2.96 2.96 0 0 1 1.715 1.509A.752.752 0 0 1 9.633 8zM14.615 8a.746.746 0 0 1-.673-1.081c.29-.59.774-1.073 1.363-1.363a2.954 2.954 0 0 1 2.28-.146A2.96 2.96 0 0 1 19.3 6.919.75.75 0 0 1 18.627 8a.745.745 0 0 1-.673-.42 1.477 1.477 0 0 0-1.335-.83 1.494 1.494 0 0 0-1.332.831.742.742 0 0 1-.672.419zM12.124 15.01a6.487 6.487 0 0 1-4.377-1.706A.751.751 0 0 1 8.252 12c.188 0 .367.07.505.196.928.847 2.124 1.313 3.367 1.313s2.438-.467 3.367-1.313a.747.747 0 0 1 1.059.049c.135.148.205.34.195.54a.745.745 0 0 1-.244.52 6.49 6.49 0 0 1-4.377 1.705z"/></svg>