<svg id="Layer_1" data-name="Layer 1" xmlns="http://www.w3.org/2000/svg" viewBox="0 0 783.18 275.22"><defs><style>.cls-1{fill:#005aad;}.cls-2{fill:#fff;}</style></defs><path class="cls-1" d="M787.12,423.65c-8.3,40.16-37.59,65.88-78.31,67.94-5.9.29-11.83.36-17.75.36q-285.9,0-571.78-.11c-7.06,0-12.43,1.79-17.77,6.42-14.86,12.88-30.17,25.26-47.14,39.35,0-17,0-31.39,0-45.81,0-3.51.69-7.07-3.55-9.29-26-13.65-35.58-37.82-39.48-64.65C6.13,382,7.18,346.43,20.2,311.9c11.9-31.53,37.23-49.48,70.92-49.48q304.62-.06,609.29,0c47.19,0,78.08,25.88,86.83,72.18C792.86,364.33,793.26,393.91,787.12,423.65Z" transform="translate(-8.41 -262.39)"/><path class="cls-2" d="M72.88,369H46.5V350.54h78.58V369H98.85v61.52h-26Z" transform="translate(-8.41 -262.39)"/><path class="cls-2" d="M194.49,400.62c0,18.81-13,31.46-37.13,31.46-25.07,0-35.76-15.77-35.76-31.34,0-16.79,11.87-31.43,36.52-31.43C183.24,369.31,194.49,385.79,194.49,400.62Zm-47.28,0c0,9.39,3.54,15.63,10.79,15.63,7.41,0,10.58-6.16,10.58-15.21,0-9.26-2.83-15.81-10.69-15.81C150.57,385.19,147.21,391.1,147.21,400.58Z" transform="translate(-8.41 -262.39)"/><path class="cls-2" d="M230.65,425.94V454.4H205.47V387.25c0-5.41,0-11.34-.16-16.35h24.81a62.11,62.11,0,0,1,.49,6.81c3.5-4.31,9-8.4,20-8.4,14.76,0,27.37,12.1,27.37,30.21,0,21.52-15.28,32.56-30.23,32.56C238.46,432.08,233.42,429,230.65,425.94Zm21.42-25.28c0-8.38-3.7-14.3-10.89-14.3-8.15,0-11.1,5.44-11.1,14.37s3.45,14.2,10.88,14.2S252.07,409.34,252.07,400.66Z" transform="translate(-8.41 -262.39)"/><path class="cls-2" d="M314.08,425.94V454.4H288.89V387.25c0-5.41,0-11.34-.15-16.35h24.8a59.72,59.72,0,0,1,.49,6.81c3.5-4.31,9-8.4,20-8.4,14.76,0,27.38,12.1,27.38,30.21,0,21.52-15.28,32.56-30.24,32.56C321.89,432.08,316.84,429,314.08,425.94Zm21.42-25.28c0-8.38-3.7-14.3-10.89-14.3-8.16,0-11.11,5.44-11.11,14.37s3.46,14.2,10.88,14.2S335.5,409.34,335.5,400.66Z" transform="translate(-8.41 -262.39)"/><path class="cls-2" d="M461.6,390.33c0,22.57-14.9,42-46.33,42-28.83,0-44.78-18.41-44.78-41.87,0-22,15.45-41.73,46-41.73C445.31,348.72,461.6,367.66,461.6,390.33Zm-63.72-.27c0,13.91,5.53,24.21,18.64,24.21,13.47,0,17.69-11.78,17.69-23.75,0-13.88-4.9-24.07-18.41-24.07C403,366.45,397.88,377,397.88,390.06Z" transform="translate(-8.41 -262.39)"/><path class="cls-2" d="M480.81,430.49V387.05h-9.18V370.9h9.18V368c0-16.06,9.32-22.38,25.23-22.38a46.13,46.13,0,0,1,9.09.73v15.26a28,28,0,0,0-3-.11c-4.65,0-5.93,1.77-5.93,5.59v3.83h11v16.15h-11v43.44Z" transform="translate(-8.41 -262.39)"/><path class="cls-2" d="M529.5,430.49V387.05h-9.18V370.9h9.18V368c0-16.06,9.32-22.38,25.23-22.38a46.13,46.13,0,0,1,9.09.73v15.26a28,28,0,0,0-3-.11c-4.65,0-5.93,1.77-5.93,5.59v3.83h11v16.15h-11v43.44Z" transform="translate(-8.41 -262.39)"/><path class="cls-2" d="M596,406.14c.3,5.93,4,10.37,10.79,10.37,5.71,0,8.07-1.81,9.64-4.6h24.39c-3.4,10.12-11.58,20.17-34.23,20.17-27.09,0-35.66-16.18-35.66-31.47,0-16.4,10.91-31.3,35.55-31.3,25.27,0,34.94,16.12,34.94,31.54,0,1,0,4-.07,5.29Zm20.77-12.8c-.22-4.42-2.18-9.37-10-9.37-7.56,0-10.27,4.09-10.57,9.37Z" transform="translate(-8.41 -262.39)"/><path class="cls-2" d="M652.06,388.05c0-5.71,0-12.25-.11-17.15h24.57a105.54,105.54,0,0,1,.69,11.36c2.74-6.34,8.68-13.1,21.71-12.88v21.94c-13.74-.43-21.59,3.3-21.59,19.61v19.56H652.06Z" transform="translate(-8.41 -262.39)"/><path class="cls-2" d="M706.12,370.9H716V354.25h25.3V370.9H753.5v16.19H741.32v21.42c0,4.18,1,6.22,6.16,6.22a22,22,0,0,0,4-.3v15.31c-3.26,1-9.12,1.49-14.55,1.49-17.12,0-21-7.52-21-19.12v-25h-9.86Z" transform="translate(-8.41 -262.39)"/></svg>