<svg xmlns="http://www.w3.org/2000/svg" viewBox="0 0 100 100" width="100" height="100"><g stroke="#000" fill="none" stroke-width="1.5" stroke-linecap="round" stroke-linejoin="round"><path d="M12.496 9.375h75c3.45 0 6.25 2.8 6.25 6.25v68.75c0 3.45-2.8 6.25-6.25 6.25h-75c-3.45 0-6.25-2.8-6.25-6.25v-68.75c0-3.45 2.8-6.25 6.25-6.25zM6.246 28.125h87.5" stroke-width="6.250005"/><path d="M21.87 40.625h18.75c1.726 0 3.126 1.4 3.126 3.125V62.5c0 1.725-1.4 3.125-3.125 3.125H21.87a3.126 3.126 0 0 1-3.125-3.125V43.75c0-1.725 1.4-3.125 3.125-3.125zM18.746 78.125H43.75M59.37 40.625h18.75c1.726 0 3.126 1.4 3.126 3.125V75c0 1.725-1.4 3.125-3.125 3.125H59.37A3.126 3.126 0 0 1 56.246 75V43.75c0-1.725 1.4-3.125 3.125-3.125zM56.246 59.375h25" stroke-width="6.250005"/></g></svg>